Coordinates
version=1
nRows=21
nColumns=12
inDegrees=yes

Units are S.I. units (second, meters, Newtons, ...)
Angles are in degrees

endheader
time	SC_y	SC_z	SC_x	AC_y	AC_z	AC_x	GH_y	GH_z	GH_yy	EL_x	PS_y
       0.0              -13.65          5.686           63.3          57.51          2.631          17.37          59.33         -4.948          2.966          122.8          151.1
 0.0002157              -13.65          5.687          63.29          57.51          2.629          17.37          59.33         -4.943          2.946          122.7          151.1
 0.0004314              -13.66          5.689          63.29          57.51          2.627          17.36          59.34         -4.938          2.925          122.7          151.1
 0.0006471              -13.66           5.69          63.28          57.51          2.625          17.36          59.34         -4.932          2.902          122.7          151.1
 0.0008628              -13.67          5.692          63.28          57.51          2.623          17.35          59.34         -4.926          2.879          122.7          151.1
  0.001078              -13.67          5.693          63.27          57.51          2.621          17.35          59.34          -4.92          2.853          122.7          151.1
  0.001294              -13.67          5.695          63.27          57.51          2.618          17.34          59.34         -4.913          2.826          122.7          151.1
   0.00151              -13.68          5.696          63.26          57.51          2.615          17.34          59.34         -4.906          2.797          122.6          151.1
  0.001726              -13.68          5.698          63.25          57.51          2.613          17.33          59.35         -4.898          2.766          122.6          151.1
  0.001941              -13.69            5.7          63.24          57.51          2.609          17.32          59.35         -4.889          2.732          122.6          151.1
  0.002157               -13.7          5.702          63.24          57.51          2.606          17.31          59.35          -4.88          2.697          122.6          151.1
  0.002373               -13.7          5.705          63.23          57.51          2.603          17.31          59.35         -4.871          2.658          122.5          151.0
  0.002588              -13.71          5.707          63.22          57.51          2.599           17.3          59.36          -4.86          2.616          122.5          151.0
  0.002804              -13.72           5.71          63.21          57.51          2.595          17.29          59.36         -4.849          2.571          122.5          151.0
   0.00302              -13.73          5.713           63.2          57.51           2.59          17.28          59.36         -4.836          2.523          122.4          151.0
  0.003235              -13.73          5.716          63.19          57.51          2.585          17.27          59.37         -4.823           2.47          122.4          151.0
  0.003451              -13.74           5.72          63.17          57.51           2.58          17.25          59.37         -4.809          2.413          122.4          151.0
  0.003667              -13.76          5.723          63.16          57.51          2.574          17.24          59.38         -4.793           2.35          122.3          151.0
  0.003882              -13.77          5.727          63.14          57.52          2.568          17.23          59.38         -4.776          2.282          122.3          150.9
  0.004098              -13.78          5.732          63.13          57.52          2.561          17.21          59.39         -4.757          2.208          122.2          150.9
  0.004314              -13.79          5.737          63.11          57.52          2.554          17.19          59.39         -4.736          2.126          122.2          150.9
